<svg id="Layer_1" data-name="Layer 1" xmlns="http://www.w3.org/2000/svg" viewBox="0 0 750.92 89.41"><title>Svg file</title><path d="M182.15,15.94a27,27,0,0,0-14.36-5.89,46.18,46.18,0,0,0-5-.34c-1.72,0-2.86-.05-3.41-.05H136.73v70.1h22.69l3.41-.05a48.91,48.91,0,0,0,5-.34,27.09,27.09,0,0,0,14.36-5.89,31,31,0,0,0,9-12.37,43,43,0,0,0,3.07-16.4,43,43,0,0,0-3.07-16.41A30.87,30.87,0,0,0,182.15,15.94Zm-3.38,38.5a21.39,21.39,0,0,1-4.29,8.08A13,13,0,0,1,167,66.81a26.35,26.35,0,0,1-4,.41c-1.49,0-2.68.07-3.55.07h-9.25V22.12h9.25c.87,0,2.06,0,3.55.05a21.17,21.17,0,0,1,4,.44,12.92,12.92,0,0,1,7.35,4.13,20.94,20.94,0,0,1,4.36,8,34,34,0,0,1,1.44,10A34.47,34.47,0,0,1,178.77,54.44Z"/><path d="M232,27.06a21.51,21.51,0,0,0-4.62.83,16.79,16.79,0,0,0-4.14,1.82,14.47,14.47,0,0,0-4.19,3.7,19.56,19.56,0,0,0-1.46,2.24V27.18H205.86V79.76H219.2V52.89a16.65,16.65,0,0,1,.82-5.43,11.72,11.72,0,0,1,6.38-7,14.76,14.76,0,0,1,5.24-1.34,13.61,13.61,0,0,1,5.08.47V27.18A25.36,25.36,0,0,0,232,27.06Z"/><rect x="246.94" y="8.2" width="13.24" height="11.68"/><rect x="246.94" y="27.18" width="13.24" height="52.57"/><path d="M322.74,39.72a22.39,22.39,0,0,0-3.09-6.7,16.66,16.66,0,0,0-6.06-5.3,21.19,21.19,0,0,0-10.08-2.1q-7.74,0-12.83,3.36a22.06,22.06,0,0,0-4.21,3.63V27.18H274.69V79.76h13.44V53.08a23.35,23.35,0,0,1,1.09-7.89,11,11,0,0,1,2.8-4.5,9.1,9.1,0,0,1,3.65-2.07,13.7,13.7,0,0,1,3.65-.53A10.08,10.08,0,0,1,305.87,40a10.82,10.82,0,0,1,3.34,4.73,20.66,20.66,0,0,1,1.21,5.62c.13,1.87.2,3.4.2,4.6V79.76h13.43V50.26c0-.88-.06-2.28-.19-4.19A34.48,34.48,0,0,0,322.74,39.72Z"/><polygon points="384.32 27.18 367.96 27.18 350.14 52.5 350.14 9.66 336.71 9.66 336.61 79.76 350.14 79.76 350.14 54.44 368.35 79.76 385.58 79.76 365.33 53.47 384.32 27.18"/><polygon points="451.89 57.85 438.74 9.66 424.82 9.75 411.68 57.85 398.53 9.66 384.61 9.66 405.15 79.76 418.2 79.76 431.78 32.44 445.36 79.76 458.41 79.76 478.95 9.66 465.03 9.66 451.89 57.85"/><rect x="485.77" y="8.2" width="13.24" height="11.68"/><rect x="485.77" y="27.18" width="13.24" height="52.57"/><path d="M530,12.58H516.73v14.6h-9V37.4h9V57.46c0,3.15,0,6,.1,8.45a16,16,0,0,0,2,7.32,12.46,12.46,0,0,0,6.26,5.58,25.46,25.46,0,0,0,9.34,1.85,51.64,51.64,0,0,0,10.69-.9v-11a42.26,42.26,0,0,1-8.52.39,6.65,6.65,0,0,1-5.6-3,7.7,7.7,0,0,1-1-3.92c0-1.64-.07-3.48-.07-5.53V37.4h15.19V27.18H530Z"/><path d="M604.79,39.72A22.39,22.39,0,0,0,601.7,33a16.66,16.66,0,0,0-6.06-5.3,21.19,21.19,0,0,0-10.08-2.1q-7.74,0-12.83,3.36a22.06,22.06,0,0,0-4.21,3.63V9.66H556.74v70.1h13.44V53.08a23.35,23.35,0,0,1,1.09-7.89,11.14,11.14,0,0,1,2.8-4.5,9.17,9.17,0,0,1,3.65-2.07,13.7,13.7,0,0,1,3.65-.53A10.08,10.08,0,0,1,587.92,40a10.74,10.74,0,0,1,3.34,4.73,20.66,20.66,0,0,1,1.21,5.62c.13,1.87.2,3.4.2,4.6V79.76H606.1V50.26c0-.88-.06-2.28-.19-4.19A33.66,33.66,0,0,0,604.79,39.72Z"/><polygon points="653.81 56.2 630.64 9.66 618.76 9.66 618.76 79.76 631.13 79.76 631.13 37.89 651.47 79.76 656.15 79.76 676.5 37.89 676.5 79.76 688.86 79.76 688.86 9.66 676.98 9.66 653.81 56.2"/><path d="M744.35,57.17h6.38a36.48,36.48,0,0,0-2-16.6,22.82,22.82,0,0,0-8.56-10.95,24.64,24.64,0,0,0-14.07-3.9,26.66,26.66,0,0,0-13.78,3.53A24.79,24.79,0,0,0,703,39.16a31.26,31.26,0,0,0-3.41,15,27.8,27.8,0,0,0,3.48,14,25.09,25.09,0,0,0,9.64,9.59,28.43,28.43,0,0,0,14.24,3.48,26,26,0,0,0,14-4A23.34,23.34,0,0,0,750.29,66l-13.24-3.8a10.88,10.88,0,0,1-4.23,4.92,12.57,12.57,0,0,1-6.67,1.7q-6.18,0-9.37-4a15.32,15.32,0,0,1-3-7.67h30.53Zm-17.62-20c3.86,0,6.65,1.18,8.35,3.53a14.52,14.52,0,0,1,2.25,6.6H714.17a14.72,14.72,0,0,1,2.61-6Q720,37.21,726.73,37.21Z"/><path d="M93.07,3l-3.4-3H80.12V24a31.9,31.9,0,0,1,0,41.52H31.63l24,23.94H89.67l3.4-3A55.84,55.84,0,0,0,93.07,3ZM31.63,24H80.12L56.17,0H22.08l-3.4,3a55.84,55.84,0,0,0,0,83.36l3.4,3h9.55V65.47a31.9,31.9,0,0,1,0-41.52Z"/></svg>